<svg width="7" height="7" viewBox="0 0 7 7" fill="none" xmlns="http://www.w3.org/2000/svg">
<g clip-path="url(#clip0_201_20425)">
<path d="M3.35989 5.15079L3.33213 5.17855L3.30158 5.15079C1.98265 3.95403 1.11076 3.16266 1.11076 2.3602C1.11076 1.80486 1.52727 1.38835 2.08261 1.38835C2.51022 1.38835 2.92673 1.66602 3.07389 2.04365H3.59036C3.73753 1.66602 4.15403 1.38835 4.58164 1.38835C5.13699 1.38835 5.55349 1.80486 5.55349 2.3602C5.55349 3.16266 4.68161 3.95403 3.35989 5.15079ZM4.58164 0.833008C4.0985 0.833008 3.63479 1.05792 3.33213 1.41056C3.02947 1.05792 2.56576 0.833008 2.08261 0.833008C1.22738 0.833008 0.55542 1.50219 0.55542 2.3602C0.55542 3.40701 1.4995 4.26502 2.9295 5.56174L3.33213 5.92826L3.73475 5.56174C5.16475 4.26502 6.10883 3.40701 6.10883 2.3602C6.10883 1.50219 5.43687 0.833008 4.58164 0.833008Z" fill="black"/>
</g>
<defs>
<clipPath id="clip0_201_20425">
<rect width="6.6641" height="6.6641" fill="white"/>
</clipPath>
</defs>
</svg>
